<svg xmlns="http://www.w3.org/2000/svg" viewBox="0 0 48 48">
  <circle cx="24" cy="24" r="23" fill="#b44a42"/>

  <path d="M24 12a10 10 0 0 0-8.6 15.1L14 36l9-2.3A10 10 0 1 0 24 12zm5.2 14.3c-.2.6-1.2 1.1-1.7 1.2-.5.1-1.1.1-1.8-.1-.4-.1-.9-.3-1.5-.6-2.7-1.3-4.5-4.4-4.6-4.6-.1-.2-1.1-1.5-1.1-2.8 0-1.4.7-2.1 1-2.4.3-.3.6-.4.9-.4h.7c.2 0 .5-.1.7.5.2.6.8 2.1.9 2.2.1.2.1.4 0 .6-.1.2-.2.4-.3.6-.2.2-.3.4-.5.6-.2.2-.4.4-.2.8.2.4.9 1.5 2 2.4 1.4 1.2 2.5 1.6 2.9 1.8.4.2.6.2.8-.1.2-.3.9-1.1 1.1-1.4.2-.3.5-.3.8-.2.3.1 2 .9 2.3 1.1.3.2.6.3.7.5.1.2.1.7-.1 1.3z"
        fill="#ffffff"/>
</svg>
